<mxfile host="65bd71144e">
    <diagram name="Page-1" id="PL8FBgqpoX9_ajNjSibn">
        <mxGraphModel dx="3443" dy="2177" grid="1" gridSize="10" guides="1" tooltips="1" connect="1" arrows="1" fold="1" page="1" pageScale="1" pageWidth="827" pageHeight="1169" math="0" shadow="0">
            <root>
                <mxCell id="0"/>
                <mxCell id="1" parent="0"/>
                <mxCell id="59" value="" style="whiteSpace=wrap;html=1;aspect=fixed;fillColor=#00FF00;strokeColor=#00FF00;rounded=0;glass=0;sketch=1;curveFitting=1;jiggle=2;fontColor=#ffffff;" parent="1" vertex="1">
                    <mxGeometry x="-540" y="20" width="385" height="385" as="geometry"/>
                </mxCell>
                <mxCell id="46" value="" style="rounded=0;whiteSpace=wrap;html=1;strokeColor=#FFFFFF;fontSize=48;fillColor=none;rotation=90;" parent="1" vertex="1">
                    <mxGeometry x="-540" y="1060" width="600" height="320" as="geometry"/>
                </mxCell>
                <mxCell id="29" value="" style="endArrow=none;html=1;entryX=0.5;entryY=0.98;entryDx=0;entryDy=0;entryPerimeter=0;" parent="1" source="22" target="nN-Kl79zagI6-Grizh-g-14" edge="1">
                    <mxGeometry width="50" height="50" relative="1" as="geometry">
                        <mxPoint x="90" y="590" as="sourcePoint"/>
                        <mxPoint x="140" y="540" as="targetPoint"/>
                    </mxGeometry>
                </mxCell>
                <mxCell id="12" value="" style="endArrow=none;html=1;entryX=0.86;entryY=0.85;entryDx=0;entryDy=0;entryPerimeter=0;" parent="1" source="nN-Kl79zagI6-Grizh-g-12" target="nN-Kl79zagI6-Grizh-g-2" edge="1">
                    <mxGeometry width="50" height="50" relative="1" as="geometry">
                        <mxPoint x="120" y="100" as="sourcePoint"/>
                        <mxPoint x="170" y="50" as="targetPoint"/>
                    </mxGeometry>
                </mxCell>
                <mxCell id="8" value="" style="whiteSpace=wrap;html=1;aspect=fixed;fillColor=#0050ef;strokeColor=#001DBC;rounded=0;glass=0;sketch=1;curveFitting=1;jiggle=2;fontColor=#ffffff;" parent="1" vertex="1">
                    <mxGeometry x="-82" y="-200" width="160" height="160" as="geometry"/>
                </mxCell>
                <mxCell id="7" value="" style="whiteSpace=wrap;html=1;aspect=fixed;fillColor=#0050ef;strokeColor=#001DBC;rounded=0;glass=0;sketch=1;curveFitting=1;jiggle=2;fontColor=#ffffff;" parent="1" vertex="1">
                    <mxGeometry x="156" y="-200" width="160" height="160" as="geometry"/>
                </mxCell>
                <mxCell id="4" value="" style="whiteSpace=wrap;html=1;aspect=fixed;fillColor=#e3c800;fontColor=#000000;strokeColor=#B09500;rounded=0;glass=0;sketch=1;curveFitting=1;jiggle=2;" parent="1" vertex="1">
                    <mxGeometry x="156" width="160" height="160" as="geometry"/>
                </mxCell>
                <mxCell id="2" value="" style="whiteSpace=wrap;html=1;aspect=fixed;fillColor=#a20025;fontColor=#ffffff;strokeColor=#6F0000;rounded=0;glass=0;sketch=1;curveFitting=1;jiggle=2;" parent="1" vertex="1">
                    <mxGeometry x="-82" width="160" height="160" as="geometry"/>
                </mxCell>
                <mxCell id="nN-Kl79zagI6-Grizh-g-1" value="" style="shape=mxgraph.cisco.computers_and_peripherals.pc;html=1;pointerEvents=1;dashed=0;fillColor=#036897;strokeColor=#ffffff;strokeWidth=2;verticalLabelPosition=bottom;verticalAlign=top;align=center;outlineConnect=0;" parent="1" vertex="1">
                    <mxGeometry x="198" y="-153.5" width="78" height="70" as="geometry"/>
                </mxCell>
                <mxCell id="nN-Kl79zagI6-Grizh-g-2" value="" style="shape=mxgraph.cisco.computers_and_peripherals.pc;html=1;pointerEvents=1;dashed=0;fillColor=#036897;strokeColor=#ffffff;strokeWidth=2;verticalLabelPosition=bottom;verticalAlign=top;align=center;outlineConnect=0;" parent="1" vertex="1">
                    <mxGeometry x="-41" y="-153.5" width="78" height="70" as="geometry"/>
                </mxCell>
                <mxCell id="nN-Kl79zagI6-Grizh-g-3" value="" style="shape=mxgraph.cisco.computers_and_peripherals.pc;html=1;pointerEvents=1;dashed=0;fillColor=#036897;strokeColor=#ffffff;strokeWidth=2;verticalLabelPosition=bottom;verticalAlign=top;align=center;outlineConnect=0;" parent="1" vertex="1">
                    <mxGeometry x="197" y="30" width="78" height="70" as="geometry"/>
                </mxCell>
                <mxCell id="nN-Kl79zagI6-Grizh-g-4" value="" style="shape=mxgraph.cisco.computers_and_peripherals.pc;html=1;pointerEvents=1;dashed=0;fillColor=#036897;strokeColor=#ffffff;strokeWidth=2;verticalLabelPosition=bottom;verticalAlign=top;align=center;outlineConnect=0;" parent="1" vertex="1">
                    <mxGeometry x="-42" y="40" width="78" height="70" as="geometry"/>
                </mxCell>
                <mxCell id="nN-Kl79zagI6-Grizh-g-11" value="" style="shape=mxgraph.cisco.switches.workgroup_switch;sketch=0;html=1;pointerEvents=1;dashed=0;fillColor=#036897;strokeColor=#ffffff;strokeWidth=2;verticalLabelPosition=bottom;verticalAlign=top;align=center;outlineConnect=0;" parent="1" vertex="1">
                    <mxGeometry x="870" y="291.5" width="101" height="50" as="geometry"/>
                </mxCell>
                <mxCell id="nN-Kl79zagI6-Grizh-g-12" value="" style="shape=mxgraph.cisco.switches.workgroup_switch;sketch=0;html=1;pointerEvents=1;dashed=0;fillColor=#036897;strokeColor=#ffffff;strokeWidth=2;verticalLabelPosition=bottom;verticalAlign=top;align=center;outlineConnect=0;" parent="1" vertex="1">
                    <mxGeometry x="370" y="178.5" width="101" height="50" as="geometry"/>
                </mxCell>
                <mxCell id="nN-Kl79zagI6-Grizh-g-13" value="" style="shape=mxgraph.cisco.routers.router;sketch=0;html=1;pointerEvents=1;dashed=0;fillColor=#036897;strokeColor=#ffffff;strokeWidth=2;verticalLabelPosition=bottom;verticalAlign=top;align=center;outlineConnect=0;" parent="1" vertex="1">
                    <mxGeometry x="612" y="297" width="78" height="53" as="geometry"/>
                </mxCell>
                <mxCell id="nN-Kl79zagI6-Grizh-g-14" value="" style="shape=mxgraph.cisco.switches.workgroup_switch;sketch=0;html=1;pointerEvents=1;dashed=0;fillColor=#036897;strokeColor=#ffffff;strokeWidth=2;verticalLabelPosition=bottom;verticalAlign=top;align=center;outlineConnect=0;" parent="1" vertex="1">
                    <mxGeometry x="370" y="300" width="101" height="50" as="geometry"/>
                </mxCell>
                <mxCell id="nN-Kl79zagI6-Grizh-g-15" value="" style="shape=mxgraph.cisco.servers.fileserver;sketch=0;html=1;pointerEvents=1;dashed=0;fillColor=#036897;strokeColor=#ffffff;strokeWidth=2;verticalLabelPosition=bottom;verticalAlign=top;align=center;outlineConnect=0;" parent="1" vertex="1">
                    <mxGeometry x="800" y="120" width="53" height="90" as="geometry"/>
                </mxCell>
                <mxCell id="nN-Kl79zagI6-Grizh-g-16" value="" style="shape=mxgraph.cisco.servers.fileserver;sketch=0;html=1;pointerEvents=1;dashed=0;fillColor=#036897;strokeColor=#ffffff;strokeWidth=2;verticalLabelPosition=bottom;verticalAlign=top;align=center;outlineConnect=0;" parent="1" vertex="1">
                    <mxGeometry x="980" y="120" width="53" height="90" as="geometry"/>
                </mxCell>
                <mxCell id="nN-Kl79zagI6-Grizh-g-17" value="" style="shape=mxgraph.cisco.routers.router;sketch=0;html=1;pointerEvents=1;dashed=0;fillColor=#036897;strokeColor=#ffffff;strokeWidth=2;verticalLabelPosition=bottom;verticalAlign=top;align=center;outlineConnect=0;" parent="1" vertex="1">
                    <mxGeometry x="1160" y="291.5" width="78" height="53" as="geometry"/>
                </mxCell>
                <mxCell id="nN-Kl79zagI6-Grizh-g-18" value="" style="shape=mxgraph.cisco.routers.router;sketch=0;html=1;pointerEvents=1;dashed=0;fillColor=#036897;strokeColor=#ffffff;strokeWidth=2;verticalLabelPosition=bottom;verticalAlign=top;align=center;outlineConnect=0;" parent="1" vertex="1">
                    <mxGeometry x="1480" y="400" width="78" height="53" as="geometry"/>
                </mxCell>
                <mxCell id="nN-Kl79zagI6-Grizh-g-20" value="" style="shape=mxgraph.cisco.switches.workgroup_switch;sketch=0;html=1;pointerEvents=1;dashed=0;fillColor=#036897;strokeColor=#ffffff;strokeWidth=2;verticalLabelPosition=bottom;verticalAlign=top;align=center;outlineConnect=0;" parent="1" vertex="1">
                    <mxGeometry x="1467" y="520" width="101" height="50" as="geometry"/>
                </mxCell>
                <mxCell id="nN-Kl79zagI6-Grizh-g-21" value="" style="shape=mxgraph.cisco.routers.router;sketch=0;html=1;pointerEvents=1;dashed=0;fillColor=#036897;strokeColor=#ffffff;strokeWidth=2;verticalLabelPosition=bottom;verticalAlign=top;align=center;outlineConnect=0;" parent="1" vertex="1">
                    <mxGeometry x="1558" y="180" width="78" height="53" as="geometry"/>
                </mxCell>
                <mxCell id="nN-Kl79zagI6-Grizh-g-22" value="" style="shape=mxgraph.cisco.routers.router;sketch=0;html=1;pointerEvents=1;dashed=0;fillColor=#036897;strokeColor=#ffffff;strokeWidth=2;verticalLabelPosition=bottom;verticalAlign=top;align=center;outlineConnect=0;" parent="1" vertex="1">
                    <mxGeometry x="1850" y="218.5" width="78" height="53" as="geometry"/>
                </mxCell>
                <mxCell id="nN-Kl79zagI6-Grizh-g-23" value="" style="shape=mxgraph.cisco.switches.workgroup_switch;sketch=0;html=1;pointerEvents=1;dashed=0;fillColor=#036897;strokeColor=#ffffff;strokeWidth=2;verticalLabelPosition=bottom;verticalAlign=top;align=center;outlineConnect=0;" parent="1" vertex="1">
                    <mxGeometry x="2140" y="267" width="101" height="50" as="geometry"/>
                </mxCell>
                <mxCell id="nN-Kl79zagI6-Grizh-g-24" value="" style="shape=mxgraph.cisco.servers.fileserver;sketch=0;html=1;pointerEvents=1;dashed=0;fillColor=#036897;strokeColor=#ffffff;strokeWidth=2;verticalLabelPosition=bottom;verticalAlign=top;align=center;outlineConnect=0;" parent="1" vertex="1">
                    <mxGeometry x="1720" y="363" width="53" height="90" as="geometry"/>
                </mxCell>
                <mxCell id="nN-Kl79zagI6-Grizh-g-30" value="" style="endArrow=none;html=1;rounded=0;" parent="1" source="nN-Kl79zagI6-Grizh-g-12" target="nN-Kl79zagI6-Grizh-g-14" edge="1">
                    <mxGeometry width="50" height="50" relative="1" as="geometry">
                        <mxPoint x="307" y="580" as="sourcePoint"/>
                        <mxPoint x="461" y="389" as="targetPoint"/>
                    </mxGeometry>
                </mxCell>
                <mxCell id="nN-Kl79zagI6-Grizh-g-32" value="" style="endArrow=none;html=1;rounded=0;" parent="1" source="nN-Kl79zagI6-Grizh-g-1" edge="1">
                    <mxGeometry width="50" height="50" relative="1" as="geometry">
                        <mxPoint x="176.5" y="80" as="sourcePoint"/>
                        <mxPoint x="400" y="170" as="targetPoint"/>
                    </mxGeometry>
                </mxCell>
                <mxCell id="nN-Kl79zagI6-Grizh-g-36" value="" style="endArrow=none;html=1;rounded=0;" parent="1" source="nN-Kl79zagI6-Grizh-g-13" target="nN-Kl79zagI6-Grizh-g-14" edge="1">
                    <mxGeometry width="50" height="50" relative="1" as="geometry">
                        <mxPoint x="340" y="370" as="sourcePoint"/>
                        <mxPoint x="390" y="320" as="targetPoint"/>
                    </mxGeometry>
                </mxCell>
                <mxCell id="nN-Kl79zagI6-Grizh-g-37" value="" style="endArrow=none;html=1;rounded=0;entryX=0;entryY=0.5;entryDx=0;entryDy=0;entryPerimeter=0;" parent="1" source="nN-Kl79zagI6-Grizh-g-13" target="nN-Kl79zagI6-Grizh-g-11" edge="1">
                    <mxGeometry width="50" height="50" relative="1" as="geometry">
                        <mxPoint x="860" y="370" as="sourcePoint"/>
                        <mxPoint x="910" y="320" as="targetPoint"/>
                    </mxGeometry>
                </mxCell>
                <mxCell id="nN-Kl79zagI6-Grizh-g-38" value="" style="endArrow=none;html=1;rounded=0;" parent="1" source="nN-Kl79zagI6-Grizh-g-15" target="nN-Kl79zagI6-Grizh-g-11" edge="1">
                    <mxGeometry width="50" height="50" relative="1" as="geometry">
                        <mxPoint x="860" y="370" as="sourcePoint"/>
                        <mxPoint x="910" y="320" as="targetPoint"/>
                    </mxGeometry>
                </mxCell>
                <mxCell id="nN-Kl79zagI6-Grizh-g-39" value="" style="endArrow=none;html=1;rounded=0;" parent="1" source="nN-Kl79zagI6-Grizh-g-16" target="nN-Kl79zagI6-Grizh-g-11" edge="1">
                    <mxGeometry width="50" height="50" relative="1" as="geometry">
                        <mxPoint x="860" y="370" as="sourcePoint"/>
                        <mxPoint x="910" y="320" as="targetPoint"/>
                    </mxGeometry>
                </mxCell>
                <mxCell id="nN-Kl79zagI6-Grizh-g-40" value="" style="endArrow=none;html=1;rounded=0;entryX=0.87;entryY=0.74;entryDx=0;entryDy=0;entryPerimeter=0;" parent="1" source="nN-Kl79zagI6-Grizh-g-17" target="nN-Kl79zagI6-Grizh-g-11" edge="1">
                    <mxGeometry width="50" height="50" relative="1" as="geometry">
                        <mxPoint x="860" y="440" as="sourcePoint"/>
                        <mxPoint x="910" y="390" as="targetPoint"/>
                    </mxGeometry>
                </mxCell>
                <mxCell id="nN-Kl79zagI6-Grizh-g-41" value="" style="endArrow=none;html=1;rounded=0;entryX=0;entryY=0.5;entryDx=0;entryDy=0;entryPerimeter=0;" parent="1" source="nN-Kl79zagI6-Grizh-g-17" target="nN-Kl79zagI6-Grizh-g-21" edge="1">
                    <mxGeometry width="50" height="50" relative="1" as="geometry">
                        <mxPoint x="1420" y="280" as="sourcePoint"/>
                        <mxPoint x="1470" y="230" as="targetPoint"/>
                    </mxGeometry>
                </mxCell>
                <mxCell id="nN-Kl79zagI6-Grizh-g-42" value="" style="endArrow=none;html=1;rounded=0;entryX=0.12;entryY=0.9;entryDx=0;entryDy=0;entryPerimeter=0;" parent="1" source="nN-Kl79zagI6-Grizh-g-18" target="nN-Kl79zagI6-Grizh-g-21" edge="1">
                    <mxGeometry width="50" height="50" relative="1" as="geometry">
                        <mxPoint x="1370" y="440" as="sourcePoint"/>
                        <mxPoint x="1420" y="390" as="targetPoint"/>
                    </mxGeometry>
                </mxCell>
                <mxCell id="nN-Kl79zagI6-Grizh-g-43" value="" style="endArrow=none;html=1;rounded=0;exitX=0;exitY=0.5;exitDx=0;exitDy=0;exitPerimeter=0;" parent="1" source="nN-Kl79zagI6-Grizh-g-22" target="nN-Kl79zagI6-Grizh-g-21" edge="1">
                    <mxGeometry width="50" height="50" relative="1" as="geometry">
                        <mxPoint x="1370" y="440" as="sourcePoint"/>
                        <mxPoint x="1420" y="390" as="targetPoint"/>
                    </mxGeometry>
                </mxCell>
                <mxCell id="nN-Kl79zagI6-Grizh-g-44" value="" style="endArrow=none;html=1;rounded=0;entryX=0.88;entryY=0.9;entryDx=0;entryDy=0;entryPerimeter=0;" parent="1" source="nN-Kl79zagI6-Grizh-g-24" target="nN-Kl79zagI6-Grizh-g-21" edge="1">
                    <mxGeometry width="50" height="50" relative="1" as="geometry">
                        <mxPoint x="1510" y="380" as="sourcePoint"/>
                        <mxPoint x="1560" y="330" as="targetPoint"/>
                    </mxGeometry>
                </mxCell>
                <mxCell id="nN-Kl79zagI6-Grizh-g-45" value="" style="endArrow=none;html=1;rounded=0;" parent="1" source="nN-Kl79zagI6-Grizh-g-23" target="nN-Kl79zagI6-Grizh-g-22" edge="1">
                    <mxGeometry width="50" height="50" relative="1" as="geometry">
                        <mxPoint x="1510" y="380" as="sourcePoint"/>
                        <mxPoint x="1560" y="330" as="targetPoint"/>
                    </mxGeometry>
                </mxCell>
                <mxCell id="nN-Kl79zagI6-Grizh-g-46" value="" style="shape=mxgraph.cisco.computers_and_peripherals.pc;html=1;pointerEvents=1;dashed=0;fillColor=#036897;strokeColor=#ffffff;strokeWidth=2;verticalLabelPosition=bottom;verticalAlign=top;align=center;outlineConnect=0;" parent="1" vertex="1">
                    <mxGeometry x="2290" y="267" width="78" height="70" as="geometry"/>
                </mxCell>
                <mxCell id="nN-Kl79zagI6-Grizh-g-47" value="" style="endArrow=none;html=1;rounded=0;entryX=0.87;entryY=0.74;entryDx=0;entryDy=0;entryPerimeter=0;" parent="1" source="nN-Kl79zagI6-Grizh-g-46" target="nN-Kl79zagI6-Grizh-g-23" edge="1">
                    <mxGeometry width="50" height="50" relative="1" as="geometry">
                        <mxPoint x="1960" y="507" as="sourcePoint"/>
                        <mxPoint x="2010" y="457" as="targetPoint"/>
                    </mxGeometry>
                </mxCell>
                <mxCell id="nN-Kl79zagI6-Grizh-g-48" value="" style="endArrow=none;html=1;rounded=0;entryX=0.5;entryY=1;entryDx=0;entryDy=0;entryPerimeter=0;" parent="1" source="nN-Kl79zagI6-Grizh-g-20" target="nN-Kl79zagI6-Grizh-g-18" edge="1">
                    <mxGeometry width="50" height="50" relative="1" as="geometry">
                        <mxPoint x="1830" y="480" as="sourcePoint"/>
                        <mxPoint x="1880" y="430" as="targetPoint"/>
                    </mxGeometry>
                </mxCell>
                <mxCell id="nN-Kl79zagI6-Grizh-g-50" value="" style="shape=mxgraph.cisco.computers_and_peripherals.pc;html=1;pointerEvents=1;dashed=0;fillColor=#036897;strokeColor=#ffffff;strokeWidth=2;verticalLabelPosition=bottom;verticalAlign=top;align=center;outlineConnect=0;" parent="1" vertex="1">
                    <mxGeometry x="1467" y="640" width="78" height="70" as="geometry"/>
                </mxCell>
                <mxCell id="nN-Kl79zagI6-Grizh-g-51" value="" style="endArrow=none;html=1;rounded=0;entryX=0.5;entryY=0.98;entryDx=0;entryDy=0;entryPerimeter=0;" parent="1" source="nN-Kl79zagI6-Grizh-g-50" target="nN-Kl79zagI6-Grizh-g-20" edge="1">
                    <mxGeometry width="50" height="50" relative="1" as="geometry">
                        <mxPoint x="1740" y="480" as="sourcePoint"/>
                        <mxPoint x="1790" y="430" as="targetPoint"/>
                    </mxGeometry>
                </mxCell>
                <mxCell id="nN-Kl79zagI6-Grizh-g-52" value="&lt;font style=&quot;font-size: 21px;&quot;&gt;10.0.0.0/30&lt;/font&gt;" style="text;html=1;strokeColor=none;fillColor=none;align=center;verticalAlign=middle;whiteSpace=wrap;rounded=0;" parent="1" vertex="1">
                    <mxGeometry x="1360" y="188.5" width="60" height="30" as="geometry"/>
                </mxCell>
                <mxCell id="nN-Kl79zagI6-Grizh-g-53" value="&lt;font style=&quot;font-size: 21px;&quot;&gt;.1&lt;/font&gt;" style="text;html=1;strokeColor=none;fillColor=none;align=center;verticalAlign=middle;whiteSpace=wrap;rounded=0;" parent="1" vertex="1">
                    <mxGeometry x="1498" y="170" width="60" height="30" as="geometry"/>
                </mxCell>
                <mxCell id="nN-Kl79zagI6-Grizh-g-54" value="&lt;font style=&quot;font-size: 21px;&quot;&gt;.2&lt;/font&gt;" style="text;html=1;strokeColor=none;fillColor=none;align=center;verticalAlign=middle;whiteSpace=wrap;rounded=0;" parent="1" vertex="1">
                    <mxGeometry x="1220" y="250" width="60" height="30" as="geometry"/>
                </mxCell>
                <mxCell id="nN-Kl79zagI6-Grizh-g-55" value="&lt;font style=&quot;font-size: 21px;&quot;&gt;10.0.0.4/30&lt;/font&gt;" style="text;html=1;strokeColor=none;fillColor=none;align=center;verticalAlign=middle;whiteSpace=wrap;rounded=0;" parent="1" vertex="1">
                    <mxGeometry x="1720" y="158.5" width="60" height="30" as="geometry"/>
                </mxCell>
                <mxCell id="nN-Kl79zagI6-Grizh-g-56" value="&lt;font style=&quot;font-size: 21px;&quot;&gt;10.0.0.8/30&lt;/font&gt;" style="text;html=1;strokeColor=none;fillColor=none;align=center;verticalAlign=middle;whiteSpace=wrap;rounded=0;" parent="1" vertex="1">
                    <mxGeometry x="1438" y="290" width="60" height="30" as="geometry"/>
                </mxCell>
                <mxCell id="nN-Kl79zagI6-Grizh-g-57" value="&lt;font style=&quot;font-size: 21px;&quot;&gt;.6&lt;/font&gt;" style="text;html=1;strokeColor=none;fillColor=none;align=center;verticalAlign=middle;whiteSpace=wrap;rounded=0;" parent="1" vertex="1">
                    <mxGeometry x="1790" y="188.5" width="60" height="30" as="geometry"/>
                </mxCell>
                <mxCell id="nN-Kl79zagI6-Grizh-g-58" value="&lt;font style=&quot;font-size: 21px;&quot;&gt;.5&lt;/font&gt;" style="text;html=1;strokeColor=none;fillColor=none;align=center;verticalAlign=middle;whiteSpace=wrap;rounded=0;" parent="1" vertex="1">
                    <mxGeometry x="1620" y="160" width="60" height="30" as="geometry"/>
                </mxCell>
                <mxCell id="nN-Kl79zagI6-Grizh-g-60" value="&lt;font style=&quot;font-size: 21px;&quot;&gt;.10&lt;/font&gt;" style="text;html=1;strokeColor=none;fillColor=none;align=center;verticalAlign=middle;whiteSpace=wrap;rounded=0;" parent="1" vertex="1">
                    <mxGeometry x="1467" y="360" width="60" height="30" as="geometry"/>
                </mxCell>
                <mxCell id="nN-Kl79zagI6-Grizh-g-61" value="&lt;font style=&quot;font-size: 21px;&quot;&gt;.9&lt;/font&gt;" style="text;html=1;strokeColor=none;fillColor=none;align=center;verticalAlign=middle;whiteSpace=wrap;rounded=0;" parent="1" vertex="1">
                    <mxGeometry x="1498" y="233" width="60" height="30" as="geometry"/>
                </mxCell>
                <mxCell id="nN-Kl79zagI6-Grizh-g-65" value="&lt;font style=&quot;font-size: 21px;&quot;&gt;200.0.0.0/24&lt;/font&gt;" style="text;html=1;strokeColor=none;fillColor=none;align=center;verticalAlign=middle;whiteSpace=wrap;rounded=0;" parent="1" vertex="1">
                    <mxGeometry x="890.5" y="70" width="60" height="30" as="geometry"/>
                </mxCell>
                <mxCell id="nN-Kl79zagI6-Grizh-g-66" value="&lt;font style=&quot;font-size: 21px;&quot;&gt;.254&lt;/font&gt;" style="text;html=1;strokeColor=none;fillColor=none;align=center;verticalAlign=middle;whiteSpace=wrap;rounded=0;" parent="1" vertex="1">
                    <mxGeometry x="1080" y="271.5" width="60" height="30" as="geometry"/>
                </mxCell>
                <mxCell id="nN-Kl79zagI6-Grizh-g-67" value="&lt;font style=&quot;font-size: 21px;&quot;&gt;.253&lt;/font&gt;" style="text;html=1;strokeColor=none;fillColor=none;align=center;verticalAlign=middle;whiteSpace=wrap;rounded=0;" parent="1" vertex="1">
                    <mxGeometry x="690" y="271.5" width="60" height="30" as="geometry"/>
                </mxCell>
                <mxCell id="nN-Kl79zagI6-Grizh-g-68" value="&lt;font style=&quot;font-size: 21px;&quot;&gt;.53&lt;/font&gt;" style="text;html=1;strokeColor=none;fillColor=none;align=center;verticalAlign=middle;whiteSpace=wrap;rounded=0;" parent="1" vertex="1">
                    <mxGeometry x="793" y="218.5" width="60" height="30" as="geometry"/>
                </mxCell>
                <mxCell id="nN-Kl79zagI6-Grizh-g-69" value="&lt;font style=&quot;font-size: 21px;&quot;&gt;.80&lt;/font&gt;" style="text;html=1;strokeColor=none;fillColor=none;align=center;verticalAlign=middle;whiteSpace=wrap;rounded=0;" parent="1" vertex="1">
                    <mxGeometry x="973" y="218.5" width="60" height="30" as="geometry"/>
                </mxCell>
                <mxCell id="nN-Kl79zagI6-Grizh-g-73" value="&lt;font style=&quot;font-size: 21px;&quot;&gt;PC0&lt;/font&gt;" style="text;html=1;strokeColor=none;fillColor=none;align=center;verticalAlign=middle;whiteSpace=wrap;rounded=0;" parent="1" vertex="1">
                    <mxGeometry x="1370" y="670" width="60" height="30" as="geometry"/>
                </mxCell>
                <mxCell id="nN-Kl79zagI6-Grizh-g-74" value="&lt;font style=&quot;font-size: 21px;&quot;&gt;PC1&lt;/font&gt;" style="text;html=1;strokeColor=none;fillColor=none;align=center;verticalAlign=middle;whiteSpace=wrap;rounded=0;" parent="1" vertex="1">
                    <mxGeometry x="2400" y="290" width="60" height="30" as="geometry"/>
                </mxCell>
                <mxCell id="nN-Kl79zagI6-Grizh-g-81" value="&lt;font style=&quot;font-size: 21px;&quot;&gt;PC6&lt;/font&gt;" style="text;html=1;strokeColor=none;fillColor=none;align=center;verticalAlign=middle;whiteSpace=wrap;rounded=0;" parent="1" vertex="1">
                    <mxGeometry x="-35" y="-70" width="60" height="30" as="geometry"/>
                </mxCell>
                <mxCell id="nN-Kl79zagI6-Grizh-g-82" value="&lt;div&gt;&lt;font style=&quot;font-size: 21px;&quot;&gt;PC7&lt;/font&gt;&lt;/div&gt;" style="text;html=1;strokeColor=none;fillColor=none;align=center;verticalAlign=middle;whiteSpace=wrap;rounded=0;" parent="1" vertex="1">
                    <mxGeometry x="206" y="-70" width="60" height="30" as="geometry"/>
                </mxCell>
                <mxCell id="nN-Kl79zagI6-Grizh-g-84" value="&lt;font style=&quot;font-size: 21px;&quot;&gt;PC8&lt;/font&gt;" style="text;html=1;strokeColor=none;fillColor=none;align=center;verticalAlign=middle;whiteSpace=wrap;rounded=0;" parent="1" vertex="1">
                    <mxGeometry x="-35" y="120" width="60" height="30" as="geometry"/>
                </mxCell>
                <mxCell id="nN-Kl79zagI6-Grizh-g-85" value="&lt;div&gt;&lt;font style=&quot;font-size: 21px;&quot;&gt;PC9&lt;/font&gt;&lt;/div&gt;" style="text;html=1;strokeColor=none;fillColor=none;align=center;verticalAlign=middle;whiteSpace=wrap;rounded=0;" parent="1" vertex="1">
                    <mxGeometry x="206" y="110" width="60" height="30" as="geometry"/>
                </mxCell>
                <mxCell id="nN-Kl79zagI6-Grizh-g-86" value="&lt;font style=&quot;font-size: 21px;&quot;&gt;ServeurWebInterne&lt;br&gt;&lt;/font&gt;" style="text;html=1;strokeColor=none;fillColor=none;align=center;verticalAlign=middle;whiteSpace=wrap;rounded=0;" parent="1" vertex="1">
                    <mxGeometry x="-533" y="110" width="240" height="30" as="geometry"/>
                </mxCell>
                <mxCell id="nN-Kl79zagI6-Grizh-g-102" value="&lt;font style=&quot;font-size: 21px;&quot; color=&quot;#00ff00&quot;&gt;.254&lt;/font&gt;" style="text;html=1;strokeColor=none;fillColor=none;align=center;verticalAlign=middle;whiteSpace=wrap;rounded=0;" parent="1" vertex="1">
                    <mxGeometry x="552" y="280" width="60" height="30" as="geometry"/>
                </mxCell>
                <mxCell id="nN-Kl79zagI6-Grizh-g-103" value="&lt;font color=&quot;#ffff00&quot; style=&quot;font-size: 21px;&quot;&gt;.254&lt;/font&gt;" style="text;html=1;strokeColor=none;fillColor=none;align=center;verticalAlign=middle;whiteSpace=wrap;rounded=0;" parent="1" vertex="1">
                    <mxGeometry x="552" y="341.5" width="60" height="30" as="geometry"/>
                </mxCell>
                <mxCell id="nN-Kl79zagI6-Grizh-g-104" value="&lt;font style=&quot;font-size: 21px;&quot; color=&quot;#3333ff&quot;&gt;.254&lt;/font&gt;" style="text;html=1;strokeColor=none;fillColor=none;align=center;verticalAlign=middle;whiteSpace=wrap;rounded=0;" parent="1" vertex="1">
                    <mxGeometry x="492" y="344.5" width="60" height="30" as="geometry"/>
                </mxCell>
                <mxCell id="nN-Kl79zagI6-Grizh-g-106" value="&lt;font color=&quot;#ff0000&quot; style=&quot;font-size: 21px;&quot;&gt;.254&lt;/font&gt;" style="text;html=1;strokeColor=none;fillColor=none;align=center;verticalAlign=middle;whiteSpace=wrap;rounded=0;" parent="1" vertex="1">
                    <mxGeometry x="492" y="278.5" width="60" height="30" as="geometry"/>
                </mxCell>
                <mxCell id="nN-Kl79zagI6-Grizh-g-108" value="" style="shape=mxgraph.cisco.servers.fileserver;sketch=0;html=1;pointerEvents=1;dashed=0;fillColor=#036897;strokeColor=#ffffff;strokeWidth=2;verticalLabelPosition=bottom;verticalAlign=top;align=center;outlineConnect=0;" parent="1" vertex="1">
                    <mxGeometry x="-280" y="78.5" width="53" height="90" as="geometry"/>
                </mxCell>
                <mxCell id="nN-Kl79zagI6-Grizh-g-110" value="&lt;font style=&quot;font-size: 21px;&quot;&gt;ServeurWebOperateur&lt;br&gt;&lt;/font&gt;" style="text;html=1;strokeColor=none;fillColor=none;align=center;verticalAlign=middle;whiteSpace=wrap;rounded=0;" parent="1" vertex="1">
                    <mxGeometry x="1769" y="423" width="240" height="30" as="geometry"/>
                </mxCell>
                <mxCell id="nN-Kl79zagI6-Grizh-g-116" value="" style="endArrow=none;html=1;rounded=0;" parent="1" source="nN-Kl79zagI6-Grizh-g-108" target="nN-Kl79zagI6-Grizh-g-14" edge="1">
                    <mxGeometry width="50" height="50" relative="1" as="geometry">
                        <mxPoint x="290" y="410" as="sourcePoint"/>
                        <mxPoint x="340" y="360" as="targetPoint"/>
                    </mxGeometry>
                </mxCell>
                <mxCell id="13" value="" style="endArrow=none;html=1;" parent="1" source="nN-Kl79zagI6-Grizh-g-4" target="nN-Kl79zagI6-Grizh-g-12" edge="1">
                    <mxGeometry width="50" height="50" relative="1" as="geometry">
                        <mxPoint x="160" y="250" as="sourcePoint"/>
                        <mxPoint x="210" y="200" as="targetPoint"/>
                    </mxGeometry>
                </mxCell>
                <mxCell id="14" value="" style="endArrow=none;html=1;entryX=0.86;entryY=0.85;entryDx=0;entryDy=0;entryPerimeter=0;exitX=0.16;exitY=0.23;exitDx=0;exitDy=0;exitPerimeter=0;" parent="1" source="nN-Kl79zagI6-Grizh-g-12" target="nN-Kl79zagI6-Grizh-g-3" edge="1">
                    <mxGeometry width="50" height="50" relative="1" as="geometry">
                        <mxPoint x="120" y="100" as="sourcePoint"/>
                        <mxPoint x="170" y="50" as="targetPoint"/>
                    </mxGeometry>
                </mxCell>
                <mxCell id="15" value="" style="whiteSpace=wrap;html=1;aspect=fixed;fillColor=#0050ef;strokeColor=#001DBC;rounded=0;glass=0;sketch=1;curveFitting=1;jiggle=2;fontColor=#ffffff;" parent="1" vertex="1">
                    <mxGeometry x="-82" y="600" width="160" height="160" as="geometry"/>
                </mxCell>
                <mxCell id="16" value="" style="whiteSpace=wrap;html=1;aspect=fixed;fillColor=#0050ef;strokeColor=#001DBC;rounded=0;glass=0;sketch=1;curveFitting=1;jiggle=2;fontColor=#ffffff;" parent="1" vertex="1">
                    <mxGeometry x="157" y="600" width="160" height="160" as="geometry"/>
                </mxCell>
                <mxCell id="17" value="" style="whiteSpace=wrap;html=1;aspect=fixed;fillColor=#e3c800;fontColor=#000000;strokeColor=#B09500;rounded=0;glass=0;sketch=1;curveFitting=1;jiggle=2;" parent="1" vertex="1">
                    <mxGeometry x="156" y="400" width="160" height="160" as="geometry"/>
                </mxCell>
                <mxCell id="18" value="" style="whiteSpace=wrap;html=1;aspect=fixed;fillColor=#a20025;fontColor=#ffffff;strokeColor=#6F0000;rounded=0;glass=0;sketch=1;curveFitting=1;jiggle=2;" parent="1" vertex="1">
                    <mxGeometry x="-83" y="400" width="160" height="160" as="geometry"/>
                </mxCell>
                <mxCell id="19" value="" style="shape=mxgraph.cisco.computers_and_peripherals.pc;html=1;pointerEvents=1;dashed=0;fillColor=#036897;strokeColor=#ffffff;strokeWidth=2;verticalLabelPosition=bottom;verticalAlign=top;align=center;outlineConnect=0;" parent="1" vertex="1">
                    <mxGeometry x="198" y="446.5" width="78" height="70" as="geometry"/>
                </mxCell>
                <mxCell id="20" value="" style="shape=mxgraph.cisco.computers_and_peripherals.pc;html=1;pointerEvents=1;dashed=0;fillColor=#036897;strokeColor=#ffffff;strokeWidth=2;verticalLabelPosition=bottom;verticalAlign=top;align=center;outlineConnect=0;" parent="1" vertex="1">
                    <mxGeometry x="-41" y="446.5" width="78" height="70" as="geometry"/>
                </mxCell>
                <mxCell id="21" value="" style="shape=mxgraph.cisco.computers_and_peripherals.pc;html=1;pointerEvents=1;dashed=0;fillColor=#036897;strokeColor=#ffffff;strokeWidth=2;verticalLabelPosition=bottom;verticalAlign=top;align=center;outlineConnect=0;" parent="1" vertex="1">
                    <mxGeometry x="197" y="630" width="78" height="70" as="geometry"/>
                </mxCell>
                <mxCell id="22" value="" style="shape=mxgraph.cisco.computers_and_peripherals.pc;html=1;pointerEvents=1;dashed=0;fillColor=#036897;strokeColor=#ffffff;strokeWidth=2;verticalLabelPosition=bottom;verticalAlign=top;align=center;outlineConnect=0;" parent="1" vertex="1">
                    <mxGeometry x="-42" y="640" width="78" height="70" as="geometry"/>
                </mxCell>
                <mxCell id="23" value="&lt;font style=&quot;font-size: 21px;&quot;&gt;PC2&lt;/font&gt;" style="text;html=1;strokeColor=none;fillColor=none;align=center;verticalAlign=middle;whiteSpace=wrap;rounded=0;" parent="1" vertex="1">
                    <mxGeometry x="-35" y="530" width="60" height="30" as="geometry"/>
                </mxCell>
                <mxCell id="24" value="&lt;div&gt;&lt;font style=&quot;font-size: 21px;&quot;&gt;PC3&lt;/font&gt;&lt;/div&gt;" style="text;html=1;strokeColor=none;fillColor=none;align=center;verticalAlign=middle;whiteSpace=wrap;rounded=0;" parent="1" vertex="1">
                    <mxGeometry x="206" y="530" width="60" height="30" as="geometry"/>
                </mxCell>
                <mxCell id="25" value="&lt;font style=&quot;font-size: 21px;&quot;&gt;PC4&lt;/font&gt;" style="text;html=1;strokeColor=none;fillColor=none;align=center;verticalAlign=middle;whiteSpace=wrap;rounded=0;" parent="1" vertex="1">
                    <mxGeometry x="-35" y="720" width="60" height="30" as="geometry"/>
                </mxCell>
                <mxCell id="26" value="&lt;div&gt;&lt;font style=&quot;font-size: 21px;&quot;&gt;PC5&lt;/font&gt;&lt;/div&gt;" style="text;html=1;strokeColor=none;fillColor=none;align=center;verticalAlign=middle;whiteSpace=wrap;rounded=0;" parent="1" vertex="1">
                    <mxGeometry x="206" y="710" width="60" height="30" as="geometry"/>
                </mxCell>
                <mxCell id="27" value="" style="endArrow=none;html=1;" parent="1" source="20" target="nN-Kl79zagI6-Grizh-g-14" edge="1">
                    <mxGeometry width="50" height="50" relative="1" as="geometry">
                        <mxPoint x="90" y="500" as="sourcePoint"/>
                        <mxPoint x="140" y="450" as="targetPoint"/>
                    </mxGeometry>
                </mxCell>
                <mxCell id="28" value="" style="endArrow=none;html=1;exitX=0.83;exitY=0.5;exitDx=0;exitDy=0;exitPerimeter=0;" parent="1" source="19" target="nN-Kl79zagI6-Grizh-g-14" edge="1">
                    <mxGeometry width="50" height="50" relative="1" as="geometry">
                        <mxPoint x="90" y="500" as="sourcePoint"/>
                        <mxPoint x="140" y="450" as="targetPoint"/>
                    </mxGeometry>
                </mxCell>
                <mxCell id="30" value="" style="endArrow=none;html=1;" parent="1" source="21" target="nN-Kl79zagI6-Grizh-g-14" edge="1">
                    <mxGeometry width="50" height="50" relative="1" as="geometry">
                        <mxPoint x="90" y="590" as="sourcePoint"/>
                        <mxPoint x="140" y="540" as="targetPoint"/>
                    </mxGeometry>
                </mxCell>
                <mxCell id="31" value="" style="whiteSpace=wrap;html=1;aspect=fixed;fillColor=#0050ef;strokeColor=#001DBC;rounded=0;glass=0;sketch=1;curveFitting=1;jiggle=2;fontColor=#ffffff;" parent="1" vertex="1">
                    <mxGeometry x="-380" y="1050" width="80" height="80" as="geometry"/>
                </mxCell>
                <mxCell id="32" value="&lt;font style=&quot;font-size: 24px;&quot;&gt;Commercial&amp;nbsp;&lt;br&gt;192.168.10.0/24&lt;/font&gt;" style="text;html=1;strokeColor=none;fillColor=none;align=center;verticalAlign=middle;whiteSpace=wrap;rounded=0;" parent="1" vertex="1">
                    <mxGeometry x="-220" y="1075" width="60" height="30" as="geometry"/>
                </mxCell>
                <mxCell id="34" value="" style="whiteSpace=wrap;html=1;aspect=fixed;fillColor=#FF0000;strokeColor=#FF0000;rounded=0;glass=0;sketch=1;curveFitting=1;jiggle=2;fontColor=#ffffff;" parent="1" vertex="1">
                    <mxGeometry x="-380" y="1170" width="80" height="80" as="geometry"/>
                </mxCell>
                <mxCell id="37" value="&lt;font style=&quot;font-size: 24px;&quot;&gt;Administration&lt;br&gt;192.168.20.0/24&lt;/font&gt;" style="text;html=1;strokeColor=none;fillColor=none;align=center;verticalAlign=middle;whiteSpace=wrap;rounded=0;" parent="1" vertex="1">
                    <mxGeometry x="-220" y="1195" width="60" height="30" as="geometry"/>
                </mxCell>
                <mxCell id="39" value="" style="whiteSpace=wrap;html=1;aspect=fixed;fillColor=#FFFF00;strokeColor=#FFFF00;rounded=0;glass=0;sketch=1;curveFitting=1;jiggle=2;fontColor=#ffffff;" parent="1" vertex="1">
                    <mxGeometry x="-380" y="1290" width="80" height="80" as="geometry"/>
                </mxCell>
                <mxCell id="40" value="&lt;font style=&quot;font-size: 24px;&quot;&gt;SI&lt;br&gt;192.168.30.0/24&lt;/font&gt;" style="text;html=1;strokeColor=none;fillColor=none;align=center;verticalAlign=middle;whiteSpace=wrap;rounded=0;" parent="1" vertex="1">
                    <mxGeometry x="-220" y="1315" width="60" height="30" as="geometry"/>
                </mxCell>
                <mxCell id="41" value="" style="whiteSpace=wrap;html=1;aspect=fixed;fillColor=#00FF00;strokeColor=#00FF00;rounded=0;glass=0;sketch=1;curveFitting=1;jiggle=2;fontColor=#ffffff;" parent="1" vertex="1">
                    <mxGeometry x="-380" y="1410" width="80" height="80" as="geometry"/>
                </mxCell>
                <mxCell id="42" value="&lt;font style=&quot;font-size: 24px;&quot;&gt;Interne&lt;br&gt;192.168.40.0/24&lt;/font&gt;" style="text;html=1;strokeColor=none;fillColor=none;align=center;verticalAlign=middle;whiteSpace=wrap;rounded=0;" parent="1" vertex="1">
                    <mxGeometry x="-220" y="1435" width="60" height="30" as="geometry"/>
                </mxCell>
                <mxCell id="45" value="&lt;font style=&quot;font-size: 48px;&quot;&gt;VLAN&lt;/font&gt;" style="text;html=1;strokeColor=none;fillColor=none;align=center;verticalAlign=middle;whiteSpace=wrap;rounded=0;fontSize=24;" parent="1" vertex="1">
                    <mxGeometry x="-270" y="940" width="60" height="30" as="geometry"/>
                </mxCell>
                <mxCell id="51" value="&lt;font style=&quot;font-size: 21px;&quot;&gt;ServeurDHCP&lt;br&gt;&lt;/font&gt;" style="text;html=1;strokeColor=none;fillColor=none;align=center;verticalAlign=middle;whiteSpace=wrap;rounded=0;" parent="1" vertex="1">
                    <mxGeometry x="-540" y="267" width="240" height="30" as="geometry"/>
                </mxCell>
                <mxCell id="55" value="" style="shape=mxgraph.cisco.servers.fileserver;sketch=0;html=1;pointerEvents=1;dashed=0;fillColor=#036897;strokeColor=#ffffff;strokeWidth=2;verticalLabelPosition=bottom;verticalAlign=top;align=center;outlineConnect=0;" parent="1" vertex="1">
                    <mxGeometry x="-280" y="228.5" width="53" height="90" as="geometry"/>
                </mxCell>
                <mxCell id="56" value="" style="endArrow=none;html=1;fontSize=48;entryX=0.16;entryY=0.23;entryDx=0;entryDy=0;entryPerimeter=0;startArrow=none;exitX=1;exitY=0.5;exitDx=0;exitDy=0;exitPerimeter=0;" parent="1" source="55" target="nN-Kl79zagI6-Grizh-g-14" edge="1">
                    <mxGeometry width="50" height="50" relative="1" as="geometry">
                        <mxPoint x="-90" y="280" as="sourcePoint"/>
                        <mxPoint x="150" y="310" as="targetPoint"/>
                    </mxGeometry>
                </mxCell>
                <mxCell id="61" value="&lt;font style=&quot;font-size: 24px;&quot;&gt;.80&lt;/font&gt;" style="text;html=1;strokeColor=none;fillColor=none;align=center;verticalAlign=middle;whiteSpace=wrap;rounded=0;fontSize=48;" parent="1" vertex="1">
                    <mxGeometry x="-215" y="100" width="60" height="30" as="geometry"/>
                </mxCell>
                <mxCell id="65" value="&lt;font style=&quot;font-size: 24px;&quot;&gt;.67&lt;/font&gt;" style="text;html=1;strokeColor=none;fillColor=none;align=center;verticalAlign=middle;whiteSpace=wrap;rounded=0;fontSize=48;" parent="1" vertex="1">
                    <mxGeometry x="-210" y="233" width="60" height="30" as="geometry"/>
                </mxCell>
                <mxCell id="75" value="&lt;font style=&quot;font-size: 21px;&quot;&gt;10.0.0.12/30&lt;/font&gt;" style="text;html=1;strokeColor=none;fillColor=none;align=center;verticalAlign=middle;whiteSpace=wrap;rounded=0;" parent="1" vertex="1">
                    <mxGeometry x="1620" y="340" width="60" height="30" as="geometry"/>
                </mxCell>
                <mxCell id="77" value="&lt;font style=&quot;font-size: 21px;&quot;&gt;.13&lt;/font&gt;" style="text;html=1;strokeColor=none;fillColor=none;align=center;verticalAlign=middle;whiteSpace=wrap;rounded=0;" parent="1" vertex="1">
                    <mxGeometry x="1730" y="310" width="60" height="30" as="geometry"/>
                </mxCell>
                <mxCell id="78" value="&lt;font style=&quot;font-size: 21px;&quot;&gt;.14&lt;/font&gt;" style="text;html=1;strokeColor=none;fillColor=none;align=center;verticalAlign=middle;whiteSpace=wrap;rounded=0;" parent="1" vertex="1">
                    <mxGeometry x="1654" y="241.5" width="60" height="30" as="geometry"/>
                </mxCell>
                <mxCell id="81" value="" style="shape=mxgraph.cisco.computers_and_peripherals.laptop;sketch=0;html=1;pointerEvents=1;dashed=0;fillColor=#036897;strokeColor=#ffffff;strokeWidth=2;verticalLabelPosition=bottom;verticalAlign=top;align=center;outlineConnect=0;" vertex="1" parent="1">
                    <mxGeometry x="881" y="446.5" width="90" height="61" as="geometry"/>
                </mxCell>
                <mxCell id="82" value="" style="endArrow=none;html=1;rounded=0;entryX=0.5;entryY=0.98;entryDx=0;entryDy=0;entryPerimeter=0;" edge="1" parent="1" source="81" target="nN-Kl79zagI6-Grizh-g-11">
                    <mxGeometry width="50" height="50" relative="1" as="geometry">
                        <mxPoint x="980" y="380" as="sourcePoint"/>
                        <mxPoint x="944.6914191419141" y="301.5" as="targetPoint"/>
                    </mxGeometry>
                </mxCell>
                <mxCell id="83" value="&lt;font style=&quot;font-size: 21px;&quot;&gt;.10&lt;/font&gt;" style="text;html=1;strokeColor=none;fillColor=none;align=center;verticalAlign=middle;whiteSpace=wrap;rounded=0;" vertex="1" parent="1">
                    <mxGeometry x="950.5" y="390" width="60" height="30" as="geometry"/>
                </mxCell>
                <mxCell id="84" value="&lt;span style=&quot;font-size: 21px;&quot;&gt;ServeurDNS&lt;/span&gt;" style="text;html=1;strokeColor=none;fillColor=none;align=center;verticalAlign=middle;whiteSpace=wrap;rounded=0;" vertex="1" parent="1">
                    <mxGeometry x="690" y="90" width="60" height="30" as="geometry"/>
                </mxCell>
                <mxCell id="85" value="&lt;span style=&quot;font-size: 21px;&quot;&gt;ServeurWebDMZ&lt;/span&gt;" style="text;html=1;strokeColor=none;fillColor=none;align=center;verticalAlign=middle;whiteSpace=wrap;rounded=0;" vertex="1" parent="1">
                    <mxGeometry x="1080" y="60" width="60" height="30" as="geometry"/>
                </mxCell>
                <mxCell id="87" value="&lt;font style=&quot;font-size: 21px;&quot;&gt;.1&lt;/font&gt;" style="text;html=1;strokeColor=none;fillColor=none;align=center;verticalAlign=middle;whiteSpace=wrap;rounded=0;" vertex="1" parent="1">
                    <mxGeometry x="2241" y="333" width="60" height="30" as="geometry"/>
                </mxCell>
                <mxCell id="89" value="&lt;font style=&quot;font-size: 21px;&quot;&gt;192.168.1.0/24&lt;/font&gt;" style="text;html=1;strokeColor=none;fillColor=none;align=center;verticalAlign=middle;whiteSpace=wrap;rounded=0;" vertex="1" parent="1">
                    <mxGeometry x="1960" y="311.5" width="60" height="30" as="geometry"/>
                </mxCell>
                <mxCell id="90" value="&lt;font style=&quot;font-size: 21px;&quot;&gt;.254&lt;/font&gt;" style="text;html=1;strokeColor=none;fillColor=none;align=center;verticalAlign=middle;whiteSpace=wrap;rounded=0;" vertex="1" parent="1">
                    <mxGeometry x="1949" y="210" width="60" height="30" as="geometry"/>
                </mxCell>
                <mxCell id="92" value="&lt;font style=&quot;font-size: 21px;&quot;&gt;192.168.1.0/24&lt;/font&gt;" style="text;html=1;strokeColor=none;fillColor=none;align=center;verticalAlign=middle;whiteSpace=wrap;rounded=0;" vertex="1" parent="1">
                    <mxGeometry x="1320" y="520" width="60" height="30" as="geometry"/>
                </mxCell>
                <mxCell id="93" value="&lt;font style=&quot;font-size: 21px;&quot;&gt;.254&lt;/font&gt;" style="text;html=1;strokeColor=none;fillColor=none;align=center;verticalAlign=middle;whiteSpace=wrap;rounded=0;" vertex="1" parent="1">
                    <mxGeometry x="1430" y="453" width="60" height="30" as="geometry"/>
                </mxCell>
                <mxCell id="94" value="&lt;font style=&quot;font-size: 21px;&quot;&gt;.1&lt;/font&gt;" style="text;html=1;strokeColor=none;fillColor=none;align=center;verticalAlign=middle;whiteSpace=wrap;rounded=0;" vertex="1" parent="1">
                    <mxGeometry x="1520" y="610" width="60" height="30" as="geometry"/>
                </mxCell>
                <mxCell id="95" value="&lt;span style=&quot;font-size: 21px;&quot;&gt;S1&lt;/span&gt;" style="text;html=1;strokeColor=none;fillColor=none;align=center;verticalAlign=middle;whiteSpace=wrap;rounded=0;" vertex="1" parent="1">
                    <mxGeometry x="420" y="120" width="60" height="30" as="geometry"/>
                </mxCell>
                <mxCell id="96" value="&lt;span style=&quot;font-size: 21px;&quot;&gt;S2&lt;/span&gt;" style="text;html=1;strokeColor=none;fillColor=none;align=center;verticalAlign=middle;whiteSpace=wrap;rounded=0;" vertex="1" parent="1">
                    <mxGeometry x="360" y="263" width="60" height="30" as="geometry"/>
                </mxCell>
                <mxCell id="100" value="&lt;span style=&quot;font-size: 21px;&quot;&gt;R1&lt;/span&gt;" style="text;html=1;strokeColor=none;fillColor=none;align=center;verticalAlign=middle;whiteSpace=wrap;rounded=0;" vertex="1" parent="1">
                    <mxGeometry x="612" y="250" width="60" height="30" as="geometry"/>
                </mxCell>
                <mxCell id="101" value="&lt;span style=&quot;font-size: 21px;&quot;&gt;R2&lt;/span&gt;&lt;span style=&quot;color: rgba(0, 0, 0, 0); font-family: monospace; font-size: 0px; text-align: start;&quot;&gt;%3CmxGraphModel%3E%3Croot%3E%3CmxCell%20id%3D%220%22%2F%3E%3CmxCell%20id%3D%221%22%20parent%3D%220%22%2F%3E%3CmxCell%20id%3D%222%22%20value%3D%22%26lt%3Bspan%20style%3D%26quot%3Bfont-size%3A%2021px%3B%26quot%3B%26gt%3BR1%26lt%3B%2Fspan%26gt%3B%22%20style%3D%22text%3Bhtml%3D1%3BstrokeColor%3Dnone%3BfillColor%3Dnone%3Balign%3Dcenter%3BverticalAlign%3Dmiddle%3BwhiteSpace%3Dwrap%3Brounded%3D0%3B%22%20vertex%3D%221%22%20parent%3D%221%22%3E%3CmxGeometry%20x%3D%22612%22%20y%3D%22250%22%20width%3D%2260%22%20height%3D%2230%22%20as%3D%22geometry%22%2F%3E%3C%2FmxCell%3E%3C%2Froot%3E%3C%2FmxGraphModel%3E&lt;/span&gt;" style="text;html=1;strokeColor=none;fillColor=none;align=center;verticalAlign=middle;whiteSpace=wrap;rounded=0;" vertex="1" parent="1">
                    <mxGeometry x="1169" y="240" width="60" height="30" as="geometry"/>
                </mxCell>
                <mxCell id="103" value="&lt;span style=&quot;font-size: 21px;&quot;&gt;R3&lt;/span&gt;" style="text;html=1;strokeColor=none;fillColor=none;align=center;verticalAlign=middle;whiteSpace=wrap;rounded=0;" vertex="1" parent="1">
                    <mxGeometry x="1576" y="128.5" width="60" height="30" as="geometry"/>
                </mxCell>
                <mxCell id="104" value="&lt;span style=&quot;font-size: 21px;&quot;&gt;R4&lt;/span&gt;" style="text;html=1;strokeColor=none;fillColor=none;align=center;verticalAlign=middle;whiteSpace=wrap;rounded=0;" vertex="1" parent="1">
                    <mxGeometry x="1880" y="150" width="60" height="30" as="geometry"/>
                </mxCell>
                <mxCell id="105" value="&lt;span style=&quot;font-size: 21px;&quot;&gt;R5&lt;/span&gt;" style="text;html=1;strokeColor=none;fillColor=none;align=center;verticalAlign=middle;whiteSpace=wrap;rounded=0;" vertex="1" parent="1">
                    <mxGeometry x="1567" y="411.5" width="60" height="30" as="geometry"/>
                </mxCell>
            </root>
        </mxGraphModel>
    </diagram>
</mxfile>